<mxfile host="app.diagrams.net" modified="2021-09-05T14:29:10.339Z" agent="5.0 (Windows NT 10.0; Win64; x64) AppleWebKit/537.36 (KHTML, like Gecko) Chrome/93.0.4577.63 Safari/537.36" etag="o3UoehE7Tw5TsQ9iZ3ER" version="15.0.6" type="github">
  <diagram id="__GOHlEHg1IdgVrou3iO" name="Page-1">
    <mxGraphModel dx="1038" dy="556" grid="1" gridSize="10" guides="1" tooltips="1" connect="1" arrows="1" fold="1" page="1" pageScale="1" pageWidth="850" pageHeight="1100" math="0" shadow="0">
      <root>
        <mxCell id="0" />
        <mxCell id="1" parent="0" />
        <mxCell id="kuT219PL3_INX27VCdf6-1" value="" style="ellipse;whiteSpace=wrap;html=1;aspect=fixed;" vertex="1" parent="1">
          <mxGeometry x="110" y="260" width="120" height="120" as="geometry" />
        </mxCell>
        <mxCell id="kuT219PL3_INX27VCdf6-2" value="" style="ellipse;whiteSpace=wrap;html=1;" vertex="1" parent="1">
          <mxGeometry x="610" y="220" width="210" height="110" as="geometry" />
        </mxCell>
        <mxCell id="kuT219PL3_INX27VCdf6-7" style="edgeStyle=orthogonalEdgeStyle;rounded=0;orthogonalLoop=1;jettySize=auto;html=1;" edge="1" parent="1" target="kuT219PL3_INX27VCdf6-2">
          <mxGeometry relative="1" as="geometry">
            <mxPoint x="210" y="275" as="sourcePoint" />
          </mxGeometry>
        </mxCell>
        <mxCell id="kuT219PL3_INX27VCdf6-4" value="&lt;font style=&quot;font-size: 36px&quot;&gt;client&lt;/font&gt;" style="text;html=1;strokeColor=none;fillColor=none;align=center;verticalAlign=middle;whiteSpace=wrap;rounded=0;" vertex="1" parent="1">
          <mxGeometry x="150" y="310" width="40" height="20" as="geometry" />
        </mxCell>
        <mxCell id="kuT219PL3_INX27VCdf6-9" value="&lt;font style=&quot;font-size: 36px&quot;&gt;request&lt;/font&gt;" style="text;html=1;strokeColor=none;fillColor=none;align=center;verticalAlign=middle;whiteSpace=wrap;rounded=0;" vertex="1" parent="1">
          <mxGeometry x="385" y="240" width="40" height="20" as="geometry" />
        </mxCell>
        <mxCell id="kuT219PL3_INX27VCdf6-15" value="&lt;span style=&quot;color: rgb(0, 0, 0); font-family: helvetica; font-size: 36px; font-style: normal; font-weight: 400; letter-spacing: normal; text-align: center; text-indent: 0px; text-transform: none; word-spacing: 0px; background-color: rgb(248, 249, 250); display: inline; float: none;&quot;&gt;response&lt;/span&gt;" style="text;whiteSpace=wrap;html=1;" vertex="1" parent="1">
          <mxGeometry x="340" y="320" width="170" height="40" as="geometry" />
        </mxCell>
        <mxCell id="kuT219PL3_INX27VCdf6-17" style="edgeStyle=orthogonalEdgeStyle;rounded=0;orthogonalLoop=1;jettySize=auto;html=1;entryX=1;entryY=0.5;entryDx=0;entryDy=0;" edge="1" parent="1" target="kuT219PL3_INX27VCdf6-1">
          <mxGeometry relative="1" as="geometry">
            <mxPoint x="650" y="320" as="sourcePoint" />
          </mxGeometry>
        </mxCell>
        <mxCell id="kuT219PL3_INX27VCdf6-16" value="&lt;font style=&quot;font-size: 24px&quot;&gt;Server&lt;/font&gt;" style="text;html=1;strokeColor=none;fillColor=none;align=center;verticalAlign=middle;whiteSpace=wrap;rounded=0;" vertex="1" parent="1">
          <mxGeometry x="695" y="270" width="40" height="20" as="geometry" />
        </mxCell>
      </root>
    </mxGraphModel>
  </diagram>
</mxfile>
